<svg width="120" height="24" viewBox="0 0 120 24" fill="none" xmlns="http://www.w3.org/2000/svg">
<g filter="url(#filter0_i_515_94330)">
<rect width="24" height="24" rx="4" fill="#27A376"/>
<rect width="24" height="24" rx="4" fill="url(#paint0_linear_515_94330)"/>
<rect x="0.351562" y="0.351562" width="23.2969" height="23.2969" rx="3.64844" stroke="#0CAF60" stroke-width="0.703125"/>
<g filter="url(#filter1_d_515_94330)">
<path fill-rule="evenodd" clip-rule="evenodd" d="M16.05 5.92493H7.95C6.45883 5.92493 5.25 7.13376 5.25 8.62493C5.25 9.75804 5.94801 10.7281 6.9375 11.1287V8.62493C6.9375 8.35639 7.04417 8.09886 7.23405 7.90898C7.42393 7.7191 7.68147 7.61243 7.95 7.61243L16.05 7.61243C16.3185 7.61243 16.5761 7.7191 16.7659 7.90898C16.9558 8.09886 17.0625 8.3564 17.0625 8.62493V11.1287C18.052 10.7281 18.75 9.75804 18.75 8.62493C18.75 7.13376 17.5412 5.92493 16.05 5.92493ZM16.05 16.575L16.05 8.625H7.95V16.575C7.95 17.4034 8.62157 18.075 9.45 18.075H14.55C15.3784 18.075 16.05 17.4034 16.05 16.575ZM11.4379 12.4036L11.0481 12.7933C10.8285 13.013 10.4723 13.013 10.2526 12.7933C10.033 12.5737 10.033 12.2175 10.2526 11.9979L11.1253 11.1252C11.6086 10.6419 12.3922 10.6419 12.8754 11.1252L13.7481 11.9979C13.9678 12.2175 13.9678 12.5737 13.7481 12.7933C13.5285 13.013 13.1723 13.013 12.9526 12.7933L12.5629 12.4036V15.0956C12.5629 15.4063 12.3111 15.6581 12.0004 15.6581C11.6897 15.6581 11.4379 15.4063 11.4379 15.0956V12.4036Z" fill="white"/>
</g>
</g>
<path d="M113.853 20.4375C110.268 20.4375 108.058 17.9808 108.058 13.963C108.058 9.78441 110.335 7.44257 113.853 7.44257C117.415 7.44257 119.625 9.92216 119.625 13.963C119.625 18.0956 117.348 20.4375 113.853 20.4375ZM113.853 18.0038C115.679 18.0038 116.649 16.5803 116.649 13.963C116.649 11.3456 115.657 9.87624 113.853 9.87624C112.004 9.87624 111.034 11.3227 111.034 13.963C111.034 16.5574 112.026 18.0038 113.853 18.0038Z" fill="black"/>
<path d="M106.533 12.1492H103.647C103.376 10.5421 102.429 9.87624 101.211 9.87624C99.4302 9.87624 98.4832 11.3227 98.4832 13.963C98.4832 16.5574 99.4753 18.0038 101.302 18.0038C102.542 18.0038 103.421 17.315 103.714 15.9145H106.623C106.082 18.991 103.962 20.4375 101.234 20.4375C97.6714 20.4375 95.5068 17.9579 95.5068 13.963C95.5068 9.78441 97.7391 7.44257 101.211 7.44257C103.962 7.44257 106.127 9.0038 106.533 12.1492Z" fill="black"/>
<path d="M91.9671 6.40944C91.1809 6.40944 90.5436 5.77213 90.5436 4.98597C90.5436 4.19981 91.1809 3.5625 91.9671 3.5625H92.0063C92.7924 3.5625 93.4297 4.19981 93.4297 4.98597C93.4297 5.77213 92.7924 6.40944 92.0063 6.40944H91.9671ZM90.5436 20.0931V7.78699H93.4297V20.0931H90.5436Z" fill="black"/>
<path d="M81.8421 20.4375C78.6854 20.4375 76.7463 17.9809 76.7463 13.963C76.7463 9.78444 78.7305 7.4426 81.8421 7.4426C83.1724 7.4426 84.2773 8.01658 85.0213 9.11862V3.5625H87.9075V20.0931H85.0213V18.6926C84.2547 19.8176 83.1724 20.4375 81.8421 20.4375ZM82.3607 18.0038C84.0969 18.0038 85.0213 16.5804 85.0213 13.963C85.0213 11.3457 84.0518 9.87627 82.3607 9.87627C80.647 9.87627 79.7226 11.3227 79.7226 13.963C79.7226 16.5574 80.6696 18.0038 82.3607 18.0038Z" fill="black"/>
<path d="M64.1203 20.0931V7.78696H67.0064V9.44002C67.7956 8.10839 69.0582 7.44257 70.5915 7.44257C73.0041 7.44257 74.6501 8.91196 74.6501 11.8967V20.0931H71.764V12.4936C71.764 10.8176 71.065 9.87624 69.5994 9.87624C67.9985 9.87624 67.0064 11.2997 67.0064 12.9528V20.0931H64.1203Z" fill="black"/>
<path d="M62.0447 16.0752C61.3908 18.9222 59.2262 20.4375 56.34 20.4375C52.6873 20.4375 50.455 17.9808 50.455 13.963C50.455 9.78441 52.7098 7.44257 56.2273 7.44257C59.7673 7.44257 61.9545 9.87624 61.9545 13.8482V14.537H53.4314C53.5666 16.787 54.5813 18.0268 56.34 18.0268C57.6929 18.0268 58.6174 17.3839 59.0007 16.0752H62.0447ZM56.2273 9.85329C54.694 9.85329 53.7696 10.8405 53.499 12.7002H58.9331C58.6625 10.8635 57.738 9.85329 56.2273 9.85329Z" fill="black"/>
<path d="M38.4744 4.48089L42.4428 15.4554L42.9163 17.1773L43.3673 15.4554L47.3357 4.48089H50.3797L44.6074 20.0931H41.0448L35.25 4.48089H38.4744Z" fill="black"/>
<defs>
<filter id="filter0_i_515_94330" x="0" y="0" width="24" height="24.7031" filterUnits="userSpaceOnUse" color-interpolation-filters="sRGB">
<feFlood flood-opacity="0" result="BackgroundImageFix"/>
<feBlend mode="normal" in="SourceGraphic" in2="BackgroundImageFix" result="shape"/>
<feColorMatrix in="SourceAlpha" type="matrix" values="0 0 0 0 0 0 0 0 0 0 0 0 0 0 0 0 0 0 127 0" result="hardAlpha"/>
<feOffset dy="0.703125"/>
<feGaussianBlur stdDeviation="0.703125"/>
<feComposite in2="hardAlpha" operator="arithmetic" k2="-1" k3="1"/>
<feColorMatrix type="matrix" values="0 0 0 0 0 0 0 0 0 0 0 0 0 0 0 0 0 0 0.2 0"/>
<feBlend mode="normal" in2="shape" result="effect1_innerShadow_515_94330"/>
</filter>
<filter id="filter1_d_515_94330" x="3.75" y="4.42493" width="16.5" height="15.15" filterUnits="userSpaceOnUse" color-interpolation-filters="sRGB">
<feFlood flood-opacity="0" result="BackgroundImageFix"/>
<feColorMatrix in="SourceAlpha" type="matrix" values="0 0 0 0 0 0 0 0 0 0 0 0 0 0 0 0 0 0 127 0" result="hardAlpha"/>
<feOffset/>
<feGaussianBlur stdDeviation="0.75"/>
<feComposite in2="hardAlpha" operator="out"/>
<feColorMatrix type="matrix" values="0 0 0 0 0.163281 0 0 0 0 0.6875 0 0 0 0 0.43343 0 0 0 1 0"/>
<feBlend mode="normal" in2="BackgroundImageFix" result="effect1_dropShadow_515_94330"/>
<feBlend mode="normal" in="SourceGraphic" in2="effect1_dropShadow_515_94330" result="shape"/>
</filter>
<linearGradient id="paint0_linear_515_94330" x1="12" y1="0" x2="12" y2="24" gradientUnits="userSpaceOnUse">
<stop stop-color="white" stop-opacity="0.2"/>
<stop offset="1" stop-color="white" stop-opacity="0"/>
</linearGradient>
</defs>
</svg>
